<svg width="198" height="19" viewBox="0 0 198 19" fill="none" xmlns="http://www.w3.org/2000/svg">
<path d="M21.8092 18.483L17.2749 11.8539C19.961 11.1146 21.341 9.29104 21.341 6.48171C21.341 3.00702 18.6795 0.641272 14.6134 0.641272H0V18.483H4.3372V12.1743H12.5434L16.9299 18.483H21.8092ZM14.1452 8.74889H4.3372V4.06668H14.1206C15.9688 4.06668 17.0531 5.00312 17.0531 6.3585C17.0531 7.83709 15.9934 8.74889 14.1452 8.74889Z" fill="black"/>
<path d="M48.0723 9.53747C48.0723 6.94993 47.0127 4.73204 44.9919 3.05631C42.7494 1.20807 39.5211 0.0991211 35.9479 0.0991211C32.3993 0.0991211 29.171 1.18342 26.9038 3.05631C24.8831 4.73204 23.8234 6.94993 23.8234 9.53747C23.8234 12.1496 24.8584 14.3922 26.8792 16.0679C29.0971 17.9162 32.3007 19.0005 35.9232 19.0005C39.5704 19.0005 42.7494 17.9162 44.9919 16.0679C47.0127 14.3922 48.0723 12.1496 48.0723 9.53747ZM43.6119 9.53747C43.6119 13.1354 40.6547 15.5504 35.9232 15.5504C31.2164 15.5504 28.2838 13.1354 28.2838 9.53747C28.2838 6.01349 31.2903 3.54917 35.9479 3.54917C40.6301 3.54917 43.6119 6.01349 43.6119 9.53747Z" fill="black"/>
<path d="M75.021 9.53747C75.021 6.94993 73.9614 4.73204 71.9406 3.05631C69.6981 1.20807 66.4698 0.0991211 62.8966 0.0991211C59.3479 0.0991211 56.1197 1.18342 53.8525 3.05631C51.8318 4.73204 50.7721 6.94993 50.7721 9.53747C50.7721 12.1496 51.8071 14.3922 53.8279 16.0679C56.0458 17.9162 59.2494 19.0005 62.8719 19.0005C66.5191 19.0005 69.6981 17.9162 71.9406 16.0679C73.9614 14.3922 75.021 12.1496 75.021 9.53747ZM70.5606 9.53747C70.5606 13.1354 67.6034 15.5504 62.8719 15.5504C58.1651 15.5504 55.2325 13.1354 55.2325 9.53747C55.2325 6.01349 58.239 3.54917 62.8966 3.54917C67.5788 3.54917 70.5606 6.01349 70.5606 9.53747Z" fill="black"/>
<path d="M104.434 18.483V0.641272H99.3575L91.521 10.1043L83.6845 0.641272H78.608V18.483H82.9452V5.81635H83.0191L91.521 16.0433L100.023 5.81635H100.097V18.483H104.434Z" fill="black"/>
<path d="M135.122 18.483V15.0575H113.263V11.1393H123.687V7.71387H113.263V4.06668H128.271V0.641272H108.926V18.483H135.122Z" fill="black"/>
<path d="M154.993 18.483L150.459 11.8539C153.145 11.1146 154.525 9.29104 154.525 6.48171C154.525 3.00702 151.864 0.641272 147.797 0.641272H133.184V18.483H137.521V12.1743H145.727L150.114 18.483H154.993ZM147.329 8.74889H137.521V4.06668H147.305C149.153 4.06668 150.237 5.00312 150.237 6.3585C150.237 7.83709 149.177 8.74889 147.329 8.74889Z" fill="black"/>
<path d="M176.333 5.66849L178.798 2.80987C176.186 1.08485 172.662 0.197694 168.3 0.197694C161.843 0.197694 158.344 2.41558 158.344 5.91492C158.344 9.48818 161.769 10.8682 168.719 11.1639C172.514 11.3364 174.83 11.3364 174.83 12.9136C174.83 14.3675 172.809 15.4026 169.212 15.4026C165.885 15.4026 162.854 14.5154 159.798 12.6425L157.432 15.5504C160.858 17.9162 164.554 18.9019 169.014 18.9019C175.791 18.9019 179.438 16.6101 179.438 12.7411C179.438 9.24175 176.752 7.88637 171.158 7.36887C168.398 7.12243 166.107 7.24565 164.406 6.82672C163.371 6.58028 162.854 6.16135 162.854 5.54527C162.854 4.38704 164.776 3.67239 168.497 3.67239C171.282 3.67239 173.82 4.31311 176.333 5.66849Z" fill="black"/>
<path d="M195.486 12.3259C194.077 13.7353 192.368 14.44 190.36 14.44C188.352 14.44 186.65 13.7353 185.254 12.3259C183.858 10.9164 183.16 9.21448 183.16 7.22C183.16 5.23882 183.865 3.54352 185.274 2.13409C186.684 0.711363 188.392 0 190.4 0C192.408 0 194.11 0.704715 195.506 2.11414C196.902 3.52357 197.6 5.22553 197.6 7.22C197.6 9.20118 196.895 10.9031 195.486 12.3259ZM185.653 11.9469C186.916 13.2367 188.485 13.8816 190.36 13.8816C192.235 13.8816 193.811 13.23 195.087 11.927C196.364 10.6239 197.002 9.04162 197.002 7.18011C197.002 5.34519 196.37 3.78286 195.107 2.49309C193.844 1.20333 192.275 0.558453 190.4 0.558453C188.525 0.558453 186.95 1.20998 185.673 2.51304C184.397 3.8161 183.758 5.39838 183.758 7.25989C183.758 9.09481 184.39 10.6571 185.653 11.9469ZM187.608 10.6704V3.37066H190.879C191.81 3.37066 192.521 3.61665 193.013 4.10862C193.385 4.48092 193.571 4.9463 193.571 5.50475C193.571 6.0765 193.392 6.54188 193.033 6.90089C192.674 7.24659 192.188 7.47928 191.577 7.59895L194.01 10.6704H192.893L190.54 7.73857H188.465V10.6704H187.608ZM188.465 6.94077H190.739C191.311 6.94077 191.776 6.82111 192.135 6.58177C192.494 6.32914 192.674 5.97013 192.674 5.50475C192.674 5.10586 192.508 4.78674 192.175 4.5474C191.856 4.30807 191.411 4.1884 190.839 4.1884H188.465V6.94077Z" fill="black"/>
</svg>
