<svg width="26" height="26" viewBox="0 0 26 26" fill="none" xmlns="http://www.w3.org/2000/svg">
<path d="M8.125 24.375C9.02246 24.375 9.75 23.6475 9.75 22.75C9.75 21.8525 9.02246 21.125 8.125 21.125C7.22754 21.125 6.5 21.8525 6.5 22.75C6.5 23.6475 7.22754 24.375 8.125 24.375Z" fill="black"/>
<path d="M19.5 24.375C20.3975 24.375 21.125 23.6475 21.125 22.75C21.125 21.8525 20.3975 21.125 19.5 21.125C18.6025 21.125 17.875 21.8525 17.875 22.75C17.875 23.6475 18.6025 24.375 19.5 24.375Z" fill="black"/>
<path d="M4.04625 2.27825C4.00945 2.09413 3.91001 1.92844 3.76485 1.80935C3.61969 1.69025 3.43776 1.62511 3.25 1.625H0V3.25H2.58375L5.70375 18.8467C5.74055 19.0309 5.83999 19.1966 5.98515 19.3157C6.13031 19.4347 6.31224 19.4999 6.5 19.5H21.125V17.875H7.16625L6.51625 14.625H21.125C21.3098 14.625 21.4891 14.5619 21.6333 14.4463C21.7775 14.3306 21.8779 14.1692 21.918 13.9888L23.7607 5.6875H22.0976L20.4734 13H6.19125L4.04625 2.27825Z" fill="black"/>
<path d="M14.625 4.875V1.625H13V4.875H9.75V6.5H13V9.75H14.625V6.5H17.875V4.875H14.625Z" fill="black"/>
</svg>
