<svg width="22" height="22" viewBox="0 0 22 22" fill="none" xmlns="http://www.w3.org/2000/svg">
<path fill-rule="evenodd" clip-rule="evenodd" d="M15.2849 1H18.5515C19.903 1 20.9993 2.1059 20.9993 3.47018V6.7641C20.9993 8.12735 19.903 9.23429 18.5515 9.23429H15.2849C13.9323 9.23429 12.8359 8.12735 12.8359 6.7641V3.47018C12.8359 2.1059 13.9323 1 15.2849 1Z" stroke="black" stroke-width="1.5" stroke-linecap="round" stroke-linejoin="round"/>
<path fill-rule="evenodd" clip-rule="evenodd" d="M3.44892 1H6.71449C8.06703 1 9.16341 2.1059 9.16341 3.47018V6.7641C9.16341 8.12735 8.06703 9.23429 6.71449 9.23429H3.44892C2.09638 9.23429 1 8.12735 1 6.7641V3.47018C1 2.1059 2.09638 1 3.44892 1Z" stroke="black" stroke-width="1.5" stroke-linecap="round" stroke-linejoin="round"/>
<path fill-rule="evenodd" clip-rule="evenodd" d="M3.44892 12.7659H6.71449C8.06703 12.7659 9.16341 13.8718 9.16341 15.2371V18.53C9.16341 19.8943 8.06703 21.0002 6.71449 21.0002H3.44892C2.09638 21.0002 1 19.8943 1 18.53V15.2371C1 13.8718 2.09638 12.7659 3.44892 12.7659Z" stroke="black" stroke-width="1.5" stroke-linecap="round" stroke-linejoin="round"/>
<path fill-rule="evenodd" clip-rule="evenodd" d="M15.2849 12.7659H18.5515C19.903 12.7659 20.9993 13.8718 20.9993 15.2371V18.53C20.9993 19.8943 19.903 21.0002 18.5515 21.0002H15.2849C13.9323 21.0002 12.8359 19.8943 12.8359 18.53V15.2371C12.8359 13.8718 13.9323 12.7659 15.2849 12.7659Z" stroke="black" stroke-width="1.5" stroke-linecap="round" stroke-linejoin="round"/>
</svg>
