<svg width="26" height="25" viewBox="0 0 26 25" fill="none" xmlns="http://www.w3.org/2000/svg">
<path d="M13.0001 6.2908C9.45327 6.2908 6.59077 9.06385 6.59077 12.4999C6.59077 15.9359 9.45327 18.709 13.0001 18.709C16.547 18.709 19.4095 15.9359 19.4095 12.4999C19.4095 9.06385 16.547 6.2908 13.0001 6.2908ZM13.0001 16.5353C10.7064 16.5353 8.83452 14.722 8.83452 12.4999C8.83452 10.2778 10.7064 8.46443 13.0001 8.46443C15.2939 8.46443 17.1658 10.2778 17.1658 12.4999C17.1658 14.722 15.2939 16.5353 13.0001 16.5353ZM19.672 4.58943C18.8439 4.58943 18.1751 5.23728 18.1751 6.03953C18.1751 6.84177 18.8439 7.48963 19.672 7.48963C20.5002 7.48963 21.1689 6.8448 21.1689 6.03953C21.1691 5.84903 21.1306 5.66036 21.0555 5.48432C20.9803 5.30827 20.8701 5.14832 20.731 5.01362C20.592 4.87892 20.4269 4.77211 20.2451 4.69932C20.0634 4.62653 19.8687 4.58919 19.672 4.58943ZM25.4939 12.4999C25.4939 10.8288 25.5095 9.17283 25.4127 7.50476C25.3158 5.56726 24.8595 3.84773 23.397 2.43093C21.9314 1.01111 20.1595 0.572141 18.1595 0.478293C16.4345 0.384445 14.7251 0.399582 13.0033 0.399582C11.2783 0.399582 9.5689 0.384445 7.84702 0.478293C5.84702 0.572141 4.07202 1.01413 2.60952 2.43093C1.1439 3.85076 0.690773 5.56726 0.593898 7.50476C0.497023 9.17586 0.512648 10.8318 0.512648 12.4999C0.512648 14.168 0.497023 15.8269 0.593898 17.495C0.690773 19.4325 1.14702 21.152 2.60952 22.5688C4.07515 23.9887 5.84702 24.4276 7.84702 24.5215C9.57202 24.6153 11.2814 24.6002 13.0033 24.6002C14.7283 24.6002 16.4376 24.6153 18.1595 24.5215C20.1595 24.4276 21.9345 23.9856 23.397 22.5688C24.8627 21.149 25.3158 19.4325 25.4127 17.495C25.5127 15.8269 25.4939 14.171 25.4939 12.4999ZM22.7439 19.6384C22.5158 20.1893 22.2408 20.6011 21.8001 21.0249C21.3595 21.4517 20.9377 21.7182 20.3689 21.9391C18.7252 22.5719 14.822 22.4296 13.0001 22.4296C11.1783 22.4296 7.27202 22.5719 5.62827 21.9422C5.05952 21.7212 4.63452 21.4548 4.19702 21.0279C3.7564 20.6011 3.4814 20.1924 3.25327 19.6414C2.60327 18.046 2.75015 14.2648 2.75015 12.4999C2.75015 10.7349 2.60327 6.95076 3.25327 5.35838C3.4814 4.8074 3.7564 4.39568 4.19702 3.97185C4.63765 3.54802 5.05952 3.27859 5.62827 3.05759C7.27202 2.4279 11.1783 2.57019 13.0001 2.57019C14.822 2.57019 18.7283 2.4279 20.372 3.05759C20.9408 3.27859 21.3658 3.54499 21.8033 3.97185C22.2439 4.39871 22.5189 4.8074 22.747 5.35838C23.397 6.95076 23.2502 10.7349 23.2502 12.4999C23.2502 14.2648 23.397 18.046 22.7439 19.6384Z" fill="black"/>
</svg>
