<svg width="32" height="31" viewBox="0 0 32 31" fill="none" xmlns="http://www.w3.org/2000/svg">
<path d="M16.0001 9.29104C12.4533 9.29104 9.59077 12.0641 9.59077 15.5001C9.59077 18.9362 12.4533 21.7092 16.0001 21.7092C19.547 21.7092 22.4095 18.9362 22.4095 15.5001C22.4095 12.0641 19.547 9.29104 16.0001 9.29104ZM16.0001 19.5356C13.7064 19.5356 11.8345 17.7222 11.8345 15.5001C11.8345 13.2781 13.7064 11.4647 16.0001 11.4647C18.2939 11.4647 20.1658 13.2781 20.1658 15.5001C20.1658 17.7222 18.2939 19.5356 16.0001 19.5356ZM22.672 7.58967C21.8439 7.58967 21.1751 8.23753 21.1751 9.03977C21.1751 9.84202 21.8439 10.4899 22.672 10.4899C23.5002 10.4899 24.1689 9.84505 24.1689 9.03977C24.1691 8.84928 24.1306 8.6606 24.0555 8.48456C23.9803 8.30852 23.8701 8.14857 23.731 8.01386C23.592 7.87916 23.4269 7.77236 23.2451 7.69957C23.0634 7.62678 22.8687 7.58943 22.672 7.58967ZM28.4939 15.5001C28.4939 13.829 28.5095 12.1731 28.4127 10.505C28.3158 8.56751 27.8595 6.84797 26.397 5.43118C24.9314 4.01135 23.1595 3.57238 21.1595 3.47854C19.4345 3.38469 17.7251 3.39983 16.0033 3.39983C14.2783 3.39983 12.5689 3.38469 10.847 3.47854C8.84702 3.57238 7.07202 4.01438 5.60952 5.43118C4.1439 6.851 3.69077 8.56751 3.5939 10.505C3.49702 12.1761 3.51265 13.8321 3.51265 15.5001C3.51265 17.1682 3.49702 18.8272 3.5939 20.4953C3.69077 22.4328 4.14702 24.1523 5.60952 25.5691C7.07515 26.9889 8.84702 27.4279 10.847 27.5217C12.572 27.6156 14.2814 27.6004 16.0033 27.6004C17.7283 27.6004 19.4376 27.6156 21.1595 27.5217C23.1595 27.4279 24.9345 26.9859 26.397 25.5691C27.8627 24.1493 28.3158 22.4328 28.4127 20.4953C28.5127 18.8272 28.4939 17.1712 28.4939 15.5001ZM25.7439 22.6386C25.5158 23.1896 25.2408 23.6013 24.8001 24.0251C24.3595 24.452 23.9377 24.7184 23.3689 24.9394C21.7252 25.5721 17.822 25.4298 16.0001 25.4298C14.1783 25.4298 10.272 25.5721 8.62827 24.9424C8.05952 24.7214 7.63452 24.455 7.19702 24.0282C6.7564 23.6013 6.4814 23.1926 6.25327 22.6416C5.60327 21.0462 5.75015 17.2651 5.75015 15.5001C5.75015 13.7352 5.60327 9.951 6.25327 8.35862C6.4814 7.80764 6.7564 7.39592 7.19702 6.97209C7.63765 6.54827 8.05952 6.27883 8.62827 6.05784C10.272 5.42815 14.1783 5.57043 16.0001 5.57043C17.822 5.57043 21.7283 5.42815 23.372 6.05784C23.9408 6.27883 24.3658 6.54524 24.8033 6.97209C25.2439 7.39895 25.5189 7.80764 25.747 8.35862C26.397 9.951 26.2502 13.7352 26.2502 15.5001C26.2502 17.2651 26.397 21.0462 25.7439 22.6386Z" fill="black"/>
</svg>
