<svg width="31" height="31" viewBox="0 0 31 31" fill="none" xmlns="http://www.w3.org/2000/svg">
<path d="M15.0735 8.35001L15.5005 5.57589L15.9274 8.35001C15.9274 8.35002 15.9274 8.35002 15.9274 8.35003C16.0774 9.32438 16.5825 10.1917 17.4799 10.5656C18.3773 10.9394 19.3486 10.6872 20.1457 10.1076L20.1458 10.1076L22.8823 8.11748L20.8921 10.8538C20.3123 11.6509 20.0594 12.6223 20.4332 13.52C20.807 14.4176 21.6747 14.9223 22.6487 15.0722L22.8008 14.0838L22.6487 15.0722L25.4232 15.4992L22.6487 15.9261L22.8008 16.9145L22.6487 15.9261C21.6744 16.0761 20.8069 16.5811 20.4332 17.4787C20.0595 18.3763 20.3121 19.3476 20.892 20.1445C20.8921 20.1446 20.8922 20.1447 20.8923 20.1448L22.8816 22.8803L20.1461 20.891C19.3491 20.3109 18.3777 20.0581 17.48 20.4319C16.5824 20.8056 16.0774 21.6731 15.9274 22.6474L15.5005 25.4219L15.0735 22.6474C14.9235 21.6731 14.4185 20.8056 13.5209 20.4319C12.6233 20.0582 11.652 20.3108 10.8551 20.8908C10.855 20.8909 10.8549 20.8909 10.8548 20.891L9.07144 22.1881L10.7486 20.1023L10.7486 20.1023C11.3531 19.3505 11.6777 18.394 11.3152 17.4821C10.9527 16.5702 10.0604 16.0977 9.10513 15.9661C9.10498 15.966 9.10484 15.966 9.1047 15.966L5.70779 15.4968L8.35616 15.0809L8.35619 15.0809C9.33111 14.9278 10.1962 14.4188 10.5684 13.5211C10.9407 12.6232 10.6895 11.6515 10.1086 10.8535L8.11927 8.11843L10.8551 10.1075C10.8551 10.1076 10.8552 10.1076 10.8552 10.1076C11.6526 10.6875 12.6241 10.94 13.5217 10.5658C14.419 10.1916 14.9236 9.32395 15.0735 8.35003C15.0735 8.35002 15.0735 8.35002 15.0735 8.35001Z" stroke="black" stroke-width="2"/>
</svg>
