<svg width="27" height="27" viewBox="0 0 27 27" fill="none" xmlns="http://www.w3.org/2000/svg">
<path d="M13.5 2.25C7.40137 2.25 2.25 7.40137 2.25 13.5C2.25 17.0876 4.041 20.3377 6.75 22.4145V22.5H6.86475C8.74125 23.9006 11.0396 24.75 13.5 24.75C15.9604 24.75 18.2588 23.9006 20.1353 22.5H20.25V22.4145C22.959 20.3377 24.75 17.0887 24.75 13.5C24.75 7.40137 19.5986 2.25 13.5 2.25ZM9.08325 21.2929C9.24903 20.5429 9.66548 19.8719 10.2639 19.3905C10.8623 18.909 11.607 18.646 12.375 18.6446H14.625C15.393 18.6462 16.1375 18.9093 16.7359 19.3907C17.3343 19.8721 17.7508 20.543 17.9167 21.2929C16.6027 22.0545 15.093 22.5 13.5 22.5C11.907 22.5 10.3973 22.0545 9.08325 21.2929ZM19.8113 19.8461C19.3821 18.8245 18.6612 17.9521 17.7387 17.3382C16.8162 16.7242 15.7331 16.396 14.625 16.3946H12.375C11.2669 16.396 10.1838 16.7242 9.2613 17.3382C8.3388 17.9521 7.61787 18.8245 7.18875 19.8461C5.53837 18.2048 4.5 15.948 4.5 13.5C4.5 8.62088 8.62088 4.5 13.5 4.5C18.3791 4.5 22.5 8.62088 22.5 13.5C22.5 15.948 21.4616 18.2048 19.8113 19.8461Z" fill="black"/>
<path d="M13.5 6.75C10.935 6.75 9 8.685 9 11.25C9 13.815 10.935 15.75 13.5 15.75C16.065 15.75 18 13.815 18 11.25C18 8.685 16.065 6.75 13.5 6.75ZM13.5 13.5C12.1748 13.5 11.25 12.5752 11.25 11.25C11.25 9.92475 12.1748 9 13.5 9C14.8253 9 15.75 9.92475 15.75 11.25C15.75 12.5752 14.8253 13.5 13.5 13.5Z" fill="black"/>
</svg>
